<?xml version="1.0" encoding="iso-8859-1"?>
<!-- Uploaded to: SVG Repo, www.svgrepo.com, Generator: SVG Repo Mixer Tools -->
<!DOCTYPE svg PUBLIC "-//W3C//DTD SVG 1.1//EN" "http://www.w3.org/Graphics/SVG/1.1/DTD/svg11.dtd">
<svg fill="#292D32" height="800px" width="800px" version="1.1" id="Capa_1" xmlns="http://www.w3.org/2000/svg" xmlns:xlink="http://www.w3.org/1999/xlink" 
	 viewBox="0 0 395 395" xml:space="preserve">
<g>
	<path d="M313.001,0H81.999C36.785,0,0,36.784,0,81.998v230.993C0,358.211,36.785,395,81.999,395h231.002
		C358.216,395,395,358.211,395,312.991V81.998C395,36.784,358.216,0,313.001,0z M380,312.991C380,349.94,349.945,380,313.001,380
		H81.999C45.056,380,15,349.94,15,312.991V81.998C15,45.055,45.056,15,81.999,15h231.002C349.945,15,380,45.055,380,81.998V312.991z
		"/>
	<path d="M327.661,65.972c-4.927-2.595-10.886-2.245-15.477,0.907c-0.636,0.437-64.915,43.746-183.742,54.258
		c-1.063,0.094-2.086,0.307-3.07,0.607H80.754c-11.836,0-21.428,9.594-21.428,21.429v67.143c0,11.835,9.592,21.429,21.428,21.429
		h1.249c12.947,17.473,13.961,36.583,15.02,56.719c0.575,10.946,1.17,22.265,3.823,33.162c1.636,6.721,7.657,11.452,14.574,11.452
		h26.908c4.392,0,8.563-1.925,11.413-5.267c2.85-3.342,4.092-7.765,3.399-12.101c-0.814-5.092-1.337-10.235-1.718-15.463
		c0.234-0.07,0.465-0.15,0.689-0.254l4.064-1.894c2.503-1.166,3.587-4.141,2.421-6.643l-8.023-17.223
		c-0.112-0.241-0.256-0.462-0.403-0.68c-0.532-12.271-1.395-25.206-4.013-38.847c103.982,13.354,161.042,51.242,162.045,51.918
		c2.542,1.74,5.501,2.621,8.472,2.621c2.392,0,4.792-0.572,6.986-1.727c4.928-2.594,8.013-7.705,8.013-13.273V79.245
		C335.674,73.677,332.589,68.566,327.661,65.972z M305.674,248.589c-27.776-13.857-79.74-34.761-154.039-43.943v-55.805
		c74.299-9.182,126.263-30.086,154.039-43.943V248.589z"/>
</g>
</svg>